# xmcd
#
# Track frame offsets:
#	150
#	15341
#	27793
#	43048
#	56687
#	71126
#	86931
#	101491
#	119429
#	133893
#	147808
#	159359
#	170926
#	183270
#	198643
#	217022
#	229874
#	240553
#	255922
#	270370
#	292136
#	306306
#	318131
#	331962
#	342232
#
# Disc length: 4747 seconds
#
# Revision: 0
# Processed by: cddbd v1.5.2PL0 Copyright (c) Steve Scherf et al.
# Submitted via: EasyCDDAExtractor 2010.4.0.0
#
DISCID=75128919
DTITLE=Various Artist - Country Hits, Vol. 31
DYEAR=2010
DGENRE=Country
TTITLE0=Daniel O'donnell - Love, Hope And Faith
TTITLE1=Sam Millar - At The Funfair
TTITLE2=Nanci Griffith - Love Wore A Halo (Back Before The War)
TTITLE3=Randy Travis - Diggin Up Bones
TTITLE4=Daniel O'donnell - A Little Time
TTITLE5=Radney Foster - Nobody Wins
TTITLE6=Randy Travis - Written In Stone
TTITLE7=Sam Millar - Thank You Very Much
TTITLE8=Daniel O'donnell - A Little Piece Of Heaven
TTITLE9=Nanci Griffith - Across America
TTITLE10=Porter Wagoner - The Snakes Crawl At Night
TTITLE11=Daniel O Donnell - When You Walk in the Room
TTITLE12=Pam Tillis - When You Walk In The Room
TTITLE13=Ray Scott - Time
TTITLE14=Radney Foster - Last Chance For Love
TTITLE15=Porter Wagoner - A Fool Like Me
TTITLE16=Daniel O'donnell - I Wanna Be Free  With Loretta Lynn
TTITLE17=Porter Wagoner - When The Silver Eagle Meets The Great Speckled Bird
TTITLE18=Nanci Griffith - Tequila After Midnight
TTITLE19=Ray Scott - Gypsy
TTITLE20=Daniel O'donnell - A Little Piece Of Heaven
TTITLE21=Nanci Griffith - The Streets Of Baltimore
TTITLE22=Trisha Yearwood - Those Words We Said
TTITLE23=Daniel O'Donnell - Home Is Where the Heart Is
TTITLE24=Tracy Lawrence - Cant Break It To My Heart
EXTD=
EXTT0=
EXTT1=
EXTT2=
EXTT3=
EXTT4=
EXTT5=
EXTT6=
EXTT7=
EXTT8=
EXTT9=
EXTT10=
EXTT11=
EXTT12=
EXTT13=
EXTT14=
EXTT15=
EXTT16=
EXTT17=
EXTT18=
EXTT19=
EXTT20=
EXTT21=
EXTT22=
EXTT23=
EXTT24=
PLAYORDER=
